<svg width="43" height="43" viewBox="0 0 43 43" fill="none" xmlns="http://www.w3.org/2000/svg">
<path id="Star 2" d="M20.6925 1.51487C21.0502 0.828377 21.9498 0.828375 22.3075 1.51487L27.84 12.1324C28.2525 12.924 28.9936 13.4974 29.8736 13.6699L41.2312 15.896C41.9161 16.0302 42.2939 16.9915 41.7286 17.6173L33.7902 26.4054C33.1927 27.0669 32.9189 27.9632 33.0284 28.8464L34.5153 40.8397C34.6256 41.729 33.7934 42.195 33.2112 41.9057L22.7725 36.7195C21.9685 36.3201 21.0315 36.3201 20.2275 36.7195L9.78876 41.9057C9.20656 42.195 8.3744 41.729 8.48466 40.8397L9.97157 28.8464C10.0811 27.9632 9.80728 27.0669 9.20976 26.4054L1.27137 17.6173C0.706075 16.9915 1.08392 16.0302 1.76878 15.896L13.1264 13.6699C14.0064 13.4974 14.7475 12.924 15.16 12.1324L20.6925 1.51487Z" stroke="#C979BE" stroke-width="2"/>
</svg>
