<svg width="40" height="41" viewBox="0 0 40 41" fill="none" xmlns="http://www.w3.org/2000/svg">
<g id="Group 46">
<circle id="Ellipse 1" cx="20" cy="20" r="19.5" transform="matrix(-1 0 0 1 40 0.5)" fill="#F7F3F3" stroke="#A5A4A4"/>
<g id="Layer 2">
<path id="Vector" d="M14.4526 10.7186H25.5861V14.0208C25.5851 15.4964 24.9981 16.9111 23.9544 17.9541C22.9106 18.9971 21.4955 19.583 20.0199 19.583C18.5436 19.583 17.1278 18.9965 16.084 17.9527C15.0401 16.9088 14.4537 15.493 14.4537 14.0167V10.7186H14.4526Z" stroke="#A5A4A4" stroke-linecap="round" stroke-linejoin="round"/>
<path id="Vector_2" d="M26.3879 25.6587H13.6506V30.2814H26.3879V25.6587Z" stroke="#A5A4A4" stroke-linecap="round" stroke-linejoin="round"/>
<path id="Vector_3" d="M18.1796 19.3058V21.1297C18.1796 22.3308 17.7025 23.4828 16.8531 24.3321C16.0038 25.1815 14.8518 25.6587 13.6506 25.6587V30.2814H26.3869V25.6587C25.1857 25.6587 24.0337 25.1815 23.1844 24.3321C22.335 23.4828 21.8579 22.3308 21.8579 21.1297V19.3058" stroke="#A5A4A4" stroke-linecap="round" stroke-linejoin="round"/>
<path id="Vector_4" d="M25.5862 11.8159H27.7177C28.4005 11.8165 29.0551 12.0881 29.5377 12.5711C30.0203 13.0541 30.2914 13.7089 30.2914 14.3917C30.2914 15.0748 30.0201 15.73 29.537 16.213C29.054 16.6961 28.3988 16.9675 27.7157 16.9675H24.7405" stroke="#A5A4A4" stroke-linecap="round" stroke-linejoin="round"/>
<path id="Vector_5" d="M14.4145 11.8159H12.283C11.6002 11.8165 10.9455 12.0881 10.4629 12.5711C9.98032 13.0541 9.70923 13.7089 9.70923 14.3917C9.70923 15.0748 9.9806 15.73 10.4637 16.213C10.9467 16.6961 11.6019 16.9675 12.285 16.9675H15.2602" stroke="#A5A4A4" stroke-linecap="round" stroke-linejoin="round"/>
</g>
</g>
</svg>
