<svg width="40" height="41" viewBox="0 0 40 41" fill="none" xmlns="http://www.w3.org/2000/svg">
<g id="Group 44">
<circle id="Ellipse 1" cx="20" cy="20" r="19.5" transform="matrix(-1 0 0 1 40 0.5)" fill="#F7F3F3" stroke="#A5A4A4"/>
<path id="Vector" d="M29.2245 25.8029L29.2245 25.8029C29.1228 25.9046 29.0657 26.0425 29.0657 26.1863V27.9971H10.9343V26.1863C10.9343 26.0425 10.8772 25.9046 10.7755 25.8029C10.6738 25.7013 10.5359 25.6441 10.3922 25.6441C10.2484 25.6441 10.1105 25.7013 10.0088 25.8029C9.90712 25.9046 9.85 26.0425 9.85 26.1863V28.5392C9.85 28.683 9.90712 28.8209 10.0088 28.9226C10.1105 29.0243 10.2484 29.0814 10.3922 29.0814H29.6078C29.7516 29.0814 29.8895 29.0243 29.9912 28.9226C30.0929 28.8209 30.15 28.683 30.15 28.5392V26.1863C30.15 26.0425 30.0929 25.9046 29.9912 25.8029L29.9912 25.8029C29.8895 25.7013 29.7516 25.6441 29.6078 25.6441C29.4641 25.6441 29.3262 25.7013 29.2245 25.8029Z" fill="#A5A4A4" stroke="#A5A4A4" stroke-width="0.3"/>
<path id="Vector_2" d="M19.7069 25.0573L19.707 25.0574C19.7943 25.1137 19.8959 25.1439 19.9998 25.1441L20.0005 25.1441C20.1044 25.1439 20.206 25.1137 20.2933 25.0574L20.2934 25.0573L24.4699 22.3554L24.47 22.3555L24.4761 22.3511C24.5887 22.27 24.6659 22.1487 24.6918 22.0123C24.7177 21.8759 24.6903 21.7348 24.6152 21.6181C24.5401 21.5013 24.4231 21.4177 24.2883 21.3847L24.2526 21.5301L24.2883 21.3847C24.1535 21.3516 24.0111 21.3715 23.8905 21.4403L23.8904 21.4401L23.8834 21.4446L20.0001 23.9567L16.1198 21.4465C16.0609 21.4047 15.9942 21.3752 15.9237 21.3595C15.8518 21.3436 15.7774 21.3424 15.7051 21.3561C15.6328 21.3699 15.564 21.3982 15.503 21.4393C15.442 21.4805 15.39 21.5337 15.3502 21.5956C15.3104 21.6575 15.2836 21.7269 15.2715 21.7995C15.2593 21.8721 15.2621 21.9464 15.2797 22.0179C15.2972 22.0894 15.3291 22.1566 15.3735 22.2154C15.4169 22.2729 15.4714 22.3212 15.5337 22.3575L19.7069 25.0573Z" fill="#A5A4A4" stroke="#A5A4A4" stroke-width="0.3"/>
<path id="Vector_3" d="M19.6165 25.001C19.7181 25.1027 19.856 25.1598 19.9998 25.1598C20.1436 25.1598 20.2815 25.1027 20.3832 25.001C20.4849 24.8994 20.542 24.7615 20.542 24.6177V12.4608C20.542 12.317 20.4849 12.1791 20.3832 12.0774C20.2815 11.9758 20.1436 11.9186 19.9998 11.9186C19.856 11.9186 19.7181 11.9758 19.6165 12.0774C19.5148 12.1791 19.4577 12.317 19.4577 12.4608V24.6177C19.4577 24.7615 19.5148 24.8994 19.6165 25.001Z" fill="#A5A4A4" stroke="#A5A4A4" stroke-width="0.3"/>
</g>
</svg>
