<svg width="210" height="262" viewBox="0 0 210 262" fill="none" xmlns="http://www.w3.org/2000/svg">
<rect x="0.5" y="0.5" width="209" height="178" rx="19.5" fill="#F7F3F3" stroke="#A5A4A4" stroke-miterlimit="2.27426" stroke-dasharray="5 5"/>
<path d="M68.4659 105V93.3636H70.2216V98.4205H76.0227V93.3636H77.7841V105H76.0227V99.9261H70.2216V105H68.4659ZM82.7443 105.193C82.1913 105.193 81.6913 105.091 81.2443 104.886C80.7973 104.678 80.4432 104.377 80.1818 103.983C79.9242 103.589 79.7955 103.106 79.7955 102.534C79.7955 102.042 79.8902 101.636 80.0795 101.318C80.2689 101 80.5246 100.748 80.8466 100.562C81.1686 100.377 81.5284 100.237 81.9261 100.142C82.3239 100.047 82.7292 99.9754 83.142 99.9261C83.6648 99.8655 84.089 99.8163 84.4148 99.7784C84.7405 99.7367 84.9773 99.6705 85.125 99.5795C85.2727 99.4886 85.3466 99.3409 85.3466 99.1364V99.0966C85.3466 98.6004 85.2064 98.2159 84.9261 97.9432C84.6496 97.6705 84.2367 97.5341 83.6875 97.5341C83.1155 97.5341 82.6648 97.661 82.3352 97.9148C82.0095 98.1648 81.7841 98.4432 81.6591 98.75L80.0625 98.3864C80.2519 97.8561 80.5284 97.428 80.892 97.1023C81.2595 96.7727 81.6818 96.5341 82.1591 96.3864C82.6364 96.2348 83.1383 96.1591 83.6648 96.1591C84.0133 96.1591 84.3826 96.2008 84.7727 96.2841C85.1667 96.3636 85.5341 96.5114 85.875 96.7273C86.2197 96.9432 86.5019 97.2519 86.7216 97.6534C86.9413 98.0511 87.0511 98.5682 87.0511 99.2045V105H85.392V103.807H85.3239C85.214 104.027 85.0492 104.242 84.8295 104.455C84.6098 104.667 84.3277 104.843 83.983 104.983C83.6383 105.123 83.2254 105.193 82.7443 105.193ZM83.1136 103.83C83.5833 103.83 83.9848 103.737 84.3182 103.551C84.6553 103.366 84.911 103.123 85.0852 102.824C85.2633 102.521 85.3523 102.197 85.3523 101.852V100.727C85.2917 100.788 85.1742 100.845 85 100.898C84.8295 100.947 84.6345 100.991 84.4148 101.028C84.1951 101.062 83.9811 101.095 83.7727 101.125C83.5644 101.152 83.3902 101.174 83.25 101.193C82.9205 101.235 82.6193 101.305 82.3466 101.403C82.0777 101.502 81.8617 101.644 81.6989 101.83C81.5398 102.011 81.4602 102.254 81.4602 102.557C81.4602 102.977 81.6155 103.295 81.9261 103.511C82.2367 103.723 82.6326 103.83 83.1136 103.83ZM88.7969 102.693H90.5355C90.5582 103.049 90.7192 103.324 91.0185 103.517C91.3215 103.71 91.7135 103.807 92.1946 103.807C92.6832 103.807 93.0999 103.703 93.4446 103.494C93.7893 103.282 93.9616 102.955 93.9616 102.511C93.9616 102.246 93.8954 102.015 93.7628 101.818C93.634 101.617 93.4503 101.462 93.2116 101.352C92.9768 101.242 92.6984 101.188 92.3764 101.188H90.956V99.8523H92.3764C92.8575 99.8523 93.2173 99.7424 93.456 99.5227C93.6946 99.303 93.8139 99.0284 93.8139 98.6989C93.8139 98.3428 93.6851 98.0568 93.4276 97.8409C93.1738 97.6212 92.8196 97.5114 92.3651 97.5114C91.9029 97.5114 91.5185 97.6155 91.2116 97.8239C90.9048 98.0284 90.7438 98.2936 90.7287 98.6193H89.0128C89.0241 98.1307 89.1719 97.7027 89.456 97.3352C89.7438 96.964 90.1302 96.6761 90.6151 96.4716C91.1037 96.2633 91.6586 96.1591 92.2798 96.1591C92.9276 96.1591 93.4882 96.2633 93.9616 96.4716C94.4351 96.6799 94.8007 96.9678 95.0582 97.3352C95.3196 97.7027 95.4503 98.125 95.4503 98.6023C95.4503 99.0833 95.3063 99.4773 95.0185 99.7841C94.7344 100.087 94.3632 100.305 93.9048 100.438V100.528C94.242 100.551 94.5412 100.653 94.8026 100.835C95.0639 101.017 95.2685 101.258 95.4162 101.557C95.5639 101.856 95.6378 102.195 95.6378 102.574C95.6378 103.108 95.4901 103.57 95.1946 103.96C94.9029 104.35 94.4976 104.652 93.9787 104.864C93.4635 105.072 92.8745 105.176 92.2116 105.176C91.5677 105.176 90.9901 105.076 90.4787 104.875C89.9711 104.67 89.5677 104.383 89.2685 104.011C88.973 103.64 88.8158 103.201 88.7969 102.693ZM97.392 105V96.2727H101.011C101.996 96.2727 102.777 96.483 103.352 96.9034C103.928 97.3201 104.216 97.8864 104.216 98.6023C104.216 99.1136 104.053 99.5189 103.727 99.8182C103.402 100.117 102.97 100.318 102.432 100.42C102.822 100.466 103.18 100.583 103.506 100.773C103.831 100.958 104.093 101.208 104.29 101.523C104.491 101.837 104.591 102.212 104.591 102.648C104.591 103.11 104.472 103.519 104.233 103.875C103.994 104.227 103.648 104.504 103.193 104.705C102.742 104.902 102.199 105 101.562 105H97.392ZM98.9886 103.58H101.562C101.983 103.58 102.313 103.479 102.551 103.278C102.79 103.078 102.909 102.805 102.909 102.46C102.909 102.055 102.79 101.737 102.551 101.506C102.313 101.271 101.983 101.153 101.562 101.153H98.9886V103.58ZM98.9886 99.9091H101.028C101.347 99.9091 101.619 99.8636 101.847 99.7727C102.078 99.6818 102.254 99.553 102.375 99.3864C102.5 99.2159 102.562 99.0152 102.562 98.7841C102.562 98.447 102.424 98.1837 102.148 97.9943C101.871 97.8049 101.492 97.7102 101.011 97.7102H98.9886V99.9091ZM108.994 105.193C108.441 105.193 107.941 105.091 107.494 104.886C107.047 104.678 106.693 104.377 106.432 103.983C106.174 103.589 106.045 103.106 106.045 102.534C106.045 102.042 106.14 101.636 106.33 101.318C106.519 101 106.775 100.748 107.097 100.562C107.419 100.377 107.778 100.237 108.176 100.142C108.574 100.047 108.979 99.9754 109.392 99.9261C109.915 99.8655 110.339 99.8163 110.665 99.7784C110.991 99.7367 111.227 99.6705 111.375 99.5795C111.523 99.4886 111.597 99.3409 111.597 99.1364V99.0966C111.597 98.6004 111.456 98.2159 111.176 97.9432C110.9 97.6705 110.487 97.5341 109.938 97.5341C109.366 97.5341 108.915 97.661 108.585 97.9148C108.259 98.1648 108.034 98.4432 107.909 98.75L106.312 98.3864C106.502 97.8561 106.778 97.428 107.142 97.1023C107.509 96.7727 107.932 96.5341 108.409 96.3864C108.886 96.2348 109.388 96.1591 109.915 96.1591C110.263 96.1591 110.633 96.2008 111.023 96.2841C111.417 96.3636 111.784 96.5114 112.125 96.7273C112.47 96.9432 112.752 97.2519 112.972 97.6534C113.191 98.0511 113.301 98.5682 113.301 99.2045V105H111.642V103.807H111.574C111.464 104.027 111.299 104.242 111.08 104.455C110.86 104.667 110.578 104.843 110.233 104.983C109.888 105.123 109.475 105.193 108.994 105.193ZM109.364 103.83C109.833 103.83 110.235 103.737 110.568 103.551C110.905 103.366 111.161 103.123 111.335 102.824C111.513 102.521 111.602 102.197 111.602 101.852V100.727C111.542 100.788 111.424 100.845 111.25 100.898C111.08 100.947 110.884 100.991 110.665 101.028C110.445 101.062 110.231 101.095 110.023 101.125C109.814 101.152 109.64 101.174 109.5 101.193C109.17 101.235 108.869 101.305 108.597 101.403C108.328 101.502 108.112 101.644 107.949 101.83C107.79 102.011 107.71 102.254 107.71 102.557C107.71 102.977 107.866 103.295 108.176 103.511C108.487 103.723 108.883 103.83 109.364 103.83ZM121.479 99.9034V101.375H116.751V99.9034H121.479ZM117.229 96.2727V105H115.564V96.2727H117.229ZM122.666 96.2727V105H121.007V96.2727H122.666ZM126.604 102.619L130.45 96.2727H132.28V105H130.615V98.6477L126.786 105H124.939V96.2727H126.604V102.619ZM138.325 105.176C137.465 105.176 136.725 104.992 136.104 104.625C135.486 104.254 135.009 103.733 134.672 103.062C134.339 102.388 134.172 101.598 134.172 100.693C134.172 99.7992 134.339 99.0114 134.672 98.3295C135.009 97.6477 135.479 97.1155 136.081 96.733C136.687 96.3504 137.395 96.1591 138.206 96.1591C138.698 96.1591 139.176 96.2405 139.638 96.4034C140.1 96.5663 140.515 96.822 140.882 97.1705C141.25 97.5189 141.539 97.9716 141.751 98.5284C141.964 99.0814 142.07 99.7538 142.07 100.545V101.148H135.132V99.875H140.405C140.405 99.428 140.314 99.0322 140.132 98.6875C139.95 98.339 139.695 98.0644 139.365 97.8636C139.039 97.6629 138.657 97.5625 138.217 97.5625C137.74 97.5625 137.323 97.6799 136.967 97.9148C136.615 98.1458 136.342 98.4489 136.149 98.8239C135.96 99.1951 135.865 99.5985 135.865 100.034V101.028C135.865 101.612 135.967 102.108 136.172 102.517C136.38 102.926 136.67 103.239 137.041 103.455C137.412 103.667 137.846 103.773 138.342 103.773C138.664 103.773 138.958 103.727 139.223 103.636C139.488 103.542 139.717 103.402 139.911 103.216C140.104 103.03 140.251 102.801 140.354 102.528L141.962 102.818C141.833 103.292 141.602 103.706 141.268 104.062C140.939 104.415 140.524 104.689 140.024 104.886C139.528 105.08 138.962 105.176 138.325 105.176Z" fill="#121212"/>
<path d="M42.0353 127V118.273H43.0922V122.159H47.7456V118.273H48.8024V127H47.7456V123.097H43.0922V127H42.0353ZM53.5261 127.136C52.8954 127.136 52.3514 126.997 51.894 126.719C51.4395 126.438 51.0886 126.045 50.8414 125.543C50.5971 125.037 50.475 124.449 50.475 123.778C50.475 123.108 50.5971 122.517 50.8414 122.006C51.0886 121.491 51.4324 121.091 51.8727 120.804C52.3159 120.514 52.8329 120.369 53.4238 120.369C53.7647 120.369 54.1014 120.426 54.4338 120.54C54.7662 120.653 55.0687 120.838 55.3414 121.094C55.6142 121.347 55.8315 121.682 55.9934 122.099C56.1554 122.517 56.2363 123.031 56.2363 123.642V124.068H51.1909V123.199H55.2136C55.2136 122.83 55.1397 122.5 54.992 122.21C54.8471 121.92 54.6397 121.692 54.3699 121.524C54.1028 121.357 53.7875 121.273 53.4238 121.273C53.0233 121.273 52.6767 121.372 52.3841 121.571C52.0943 121.767 51.8713 122.023 51.715 122.338C51.5588 122.653 51.4806 122.991 51.4806 123.352V123.932C51.4806 124.426 51.5659 124.845 51.7363 125.189C51.9096 125.53 52.1497 125.79 52.4565 125.969C52.7633 126.145 53.1199 126.233 53.5261 126.233C53.7903 126.233 54.0289 126.196 54.242 126.122C54.4579 126.045 54.644 125.932 54.8002 125.781C54.9565 125.628 55.0772 125.437 55.1625 125.21L56.1341 125.483C56.0318 125.812 55.8599 126.102 55.6184 126.352C55.377 126.599 55.0787 126.793 54.7235 126.932C54.3684 127.068 53.9693 127.136 53.5261 127.136ZM62.6241 118L63.1355 118.614C62.9366 118.807 62.7065 118.942 62.4451 119.018C62.1838 119.095 61.8883 119.142 61.5588 119.159C61.2292 119.176 60.8627 119.193 60.4593 119.21C60.0048 119.227 59.6284 119.338 59.3301 119.543C59.0318 119.747 58.8017 120.043 58.6397 120.429C58.4778 120.815 58.3741 121.29 58.3287 121.852H58.4139C58.6355 121.443 58.9423 121.142 59.3343 120.949C59.7264 120.756 60.1468 120.659 60.5957 120.659C61.1071 120.659 61.5673 120.778 61.9764 121.017C62.3855 121.256 62.7093 121.609 62.948 122.078C63.1866 122.547 63.3059 123.125 63.3059 123.812C63.3059 124.497 63.1838 125.088 62.9395 125.585C62.698 126.082 62.3585 126.466 61.921 126.736C61.4863 127.003 60.9764 127.136 60.3912 127.136C59.8059 127.136 59.2931 126.999 58.8528 126.723C58.4125 126.445 58.0701 126.033 57.8258 125.487C57.5815 124.939 57.4593 124.261 57.4593 123.455V122.756C57.4593 121.298 57.7065 120.193 58.2008 119.44C58.698 118.687 59.4451 118.298 60.4423 118.273C60.7946 118.261 61.1085 118.259 61.3841 118.264C61.6596 118.27 61.8997 118.257 62.1042 118.226C62.3088 118.195 62.4821 118.119 62.6241 118ZM60.3912 126.233C60.786 126.233 61.1255 126.134 61.4096 125.935C61.6966 125.736 61.9167 125.456 62.0701 125.095C62.2235 124.732 62.3002 124.304 62.3002 123.812C62.3002 123.335 62.2221 122.929 62.0659 122.594C61.9125 122.259 61.6923 122.003 61.4054 121.827C61.1184 121.651 60.7747 121.562 60.3741 121.562C60.0815 121.562 59.8187 121.612 59.5858 121.712C59.3528 121.811 59.1539 121.957 58.9892 122.151C58.8244 122.344 58.6966 122.58 58.6056 122.858C58.5176 123.136 58.4707 123.455 58.465 123.812C58.465 124.545 58.6369 125.132 58.9806 125.572C59.3244 126.013 59.7946 126.233 60.3912 126.233ZM67.5034 127.136C66.9125 127.136 66.394 126.996 65.948 126.714C65.5048 126.433 65.1582 126.04 64.9082 125.534C64.661 125.028 64.5375 124.437 64.5375 123.761C64.5375 123.08 64.661 122.484 64.9082 121.976C65.1582 121.467 65.5048 121.072 65.948 120.791C66.394 120.51 66.9125 120.369 67.5034 120.369C68.0943 120.369 68.6113 120.51 69.0545 120.791C69.5005 121.072 69.8471 121.467 70.0943 121.976C70.3443 122.484 70.4693 123.08 70.4693 123.761C70.4693 124.437 70.3443 125.028 70.0943 125.534C69.8471 126.04 69.5005 126.433 69.0545 126.714C68.6113 126.996 68.0943 127.136 67.5034 127.136ZM67.5034 126.233C67.9522 126.233 68.3216 126.118 68.6113 125.888C68.9011 125.658 69.1156 125.355 69.2548 124.98C69.394 124.605 69.4636 124.199 69.4636 123.761C69.4636 123.324 69.394 122.916 69.2548 122.538C69.1156 122.161 68.9011 121.855 68.6113 121.622C68.3216 121.389 67.9522 121.273 67.5034 121.273C67.0545 121.273 66.6852 121.389 66.3954 121.622C66.1056 121.855 65.8912 122.161 65.752 122.538C65.6127 122.916 65.5431 123.324 65.5431 123.761C65.5431 124.199 65.6127 124.605 65.752 124.98C65.8912 125.355 66.1056 125.658 66.3954 125.888C66.6852 126.118 67.0545 126.233 67.5034 126.233ZM71.4249 127V126.062H71.6635C71.8596 126.062 72.0229 126.024 72.1536 125.947C72.2843 125.868 72.3894 125.73 72.4689 125.534C72.5513 125.335 72.6138 125.06 72.6564 124.707C72.7019 124.352 72.7346 123.901 72.7544 123.352L72.8738 120.455H77.2374V127H76.2317V121.392H73.8283L73.726 123.727C73.7033 124.264 73.655 124.737 73.5811 125.146C73.5101 125.553 73.4007 125.893 73.253 126.169C73.1081 126.445 72.915 126.652 72.6735 126.791C72.432 126.93 72.1294 127 71.7658 127H71.4249ZM79.9519 122.824H81.8269C82.5939 122.824 83.1806 123.018 83.5868 123.408C83.9931 123.797 84.1962 124.29 84.1962 124.886C84.1962 125.278 84.1053 125.635 83.9235 125.956C83.7417 126.274 83.4746 126.528 83.1223 126.719C82.7701 126.906 82.3382 127 81.8269 127H79.0826V120.455H80.0882V126.062H81.8269C82.2246 126.062 82.5513 125.957 82.807 125.747C83.0627 125.537 83.1905 125.267 83.1905 124.938C83.1905 124.591 83.0627 124.308 82.807 124.089C82.5513 123.871 82.2246 123.761 81.8269 123.761H79.9519V122.824ZM85.7271 120.455H86.7328V126.062H89.2044V120.455H90.21V126.062H92.6816V120.455H93.6873V127H85.7271V120.455ZM98.1831 127.136C97.5922 127.136 97.0737 126.996 96.6277 126.714C96.1845 126.433 95.8379 126.04 95.5879 125.534C95.3407 125.028 95.2172 124.437 95.2172 123.761C95.2172 123.08 95.3407 122.484 95.5879 121.976C95.8379 121.467 96.1845 121.072 96.6277 120.791C97.0737 120.51 97.5922 120.369 98.1831 120.369C98.774 120.369 99.291 120.51 99.7342 120.791C100.18 121.072 100.527 121.467 100.774 121.976C101.024 122.484 101.149 123.08 101.149 123.761C101.149 124.437 101.024 125.028 100.774 125.534C100.527 126.04 100.18 126.433 99.7342 126.714C99.291 126.996 98.774 127.136 98.1831 127.136ZM98.1831 126.233C98.6319 126.233 99.0012 126.118 99.291 125.888C99.5808 125.658 99.7953 125.355 99.9345 124.98C100.074 124.605 100.143 124.199 100.143 123.761C100.143 123.324 100.074 122.916 99.9345 122.538C99.7953 122.161 99.5808 121.855 99.291 121.622C99.0012 121.389 98.6319 121.273 98.1831 121.273C97.7342 121.273 97.3649 121.389 97.0751 121.622C96.7853 121.855 96.5708 122.161 96.4316 122.538C96.2924 122.916 96.2228 123.324 96.2228 123.761C96.2228 124.199 96.2924 124.605 96.4316 124.98C96.5708 125.355 96.7853 125.658 97.0751 125.888C97.3649 126.118 97.7342 126.233 98.1831 126.233ZM105.428 127.136C104.798 127.136 104.254 126.997 103.796 126.719C103.342 126.438 102.991 126.045 102.744 125.543C102.499 125.037 102.377 124.449 102.377 123.778C102.377 123.108 102.499 122.517 102.744 122.006C102.991 121.491 103.335 121.091 103.775 120.804C104.218 120.514 104.735 120.369 105.326 120.369C105.667 120.369 106.004 120.426 106.336 120.54C106.669 120.653 106.971 120.838 107.244 121.094C107.517 121.347 107.734 121.682 107.896 122.099C108.058 122.517 108.139 123.031 108.139 123.642V124.068H103.093V123.199H107.116C107.116 122.83 107.042 122.5 106.894 122.21C106.749 121.92 106.542 121.692 106.272 121.524C106.005 121.357 105.69 121.273 105.326 121.273C104.926 121.273 104.579 121.372 104.286 121.571C103.997 121.767 103.774 122.023 103.617 122.338C103.461 122.653 103.383 122.991 103.383 123.352V123.932C103.383 124.426 103.468 124.845 103.639 125.189C103.812 125.53 104.052 125.79 104.359 125.969C104.666 126.145 105.022 126.233 105.428 126.233C105.693 126.233 105.931 126.196 106.144 126.122C106.36 126.045 106.546 125.932 106.703 125.781C106.859 125.628 106.98 125.437 107.065 125.21L108.036 125.483C107.934 125.812 107.762 126.102 107.521 126.352C107.279 126.599 106.981 126.793 106.626 126.932C106.271 127.068 105.872 127.136 105.428 127.136ZM115.703 127.136C115.112 127.136 114.593 126.996 114.147 126.714C113.704 126.433 113.357 126.04 113.107 125.534C112.86 125.028 112.737 124.437 112.737 123.761C112.737 123.08 112.86 122.484 113.107 121.976C113.357 121.467 113.704 121.072 114.147 120.791C114.593 120.51 115.112 120.369 115.703 120.369C116.294 120.369 116.811 120.51 117.254 120.791C117.7 121.072 118.046 121.467 118.294 121.976C118.544 122.484 118.669 123.08 118.669 123.761C118.669 124.437 118.544 125.028 118.294 125.534C118.046 126.04 117.7 126.433 117.254 126.714C116.811 126.996 116.294 127.136 115.703 127.136ZM115.703 126.233C116.151 126.233 116.521 126.118 116.811 125.888C117.1 125.658 117.315 125.355 117.454 124.98C117.593 124.605 117.663 124.199 117.663 123.761C117.663 123.324 117.593 122.916 117.454 122.538C117.315 122.161 117.1 121.855 116.811 121.622C116.521 121.389 116.151 121.273 115.703 121.273C115.254 121.273 114.884 121.389 114.595 121.622C114.305 121.855 114.09 122.161 113.951 122.538C113.812 122.916 113.742 123.324 113.742 123.761C113.742 124.199 113.812 124.605 113.951 124.98C114.09 125.355 114.305 125.658 114.595 125.888C114.884 126.118 115.254 126.233 115.703 126.233ZM120.204 127V120.455H125.351V127H124.346V121.392H121.209V127H120.204ZM128.194 125.517L131.347 120.455H132.506V127H131.501V121.938L128.364 127H127.188V120.455H128.194V125.517ZM137.007 127.136C136.394 127.136 135.865 126.991 135.422 126.702C134.979 126.412 134.638 126.013 134.399 125.504C134.161 124.996 134.041 124.415 134.041 123.761C134.041 123.097 134.164 122.51 134.408 122.001C134.655 121.49 134.999 121.091 135.439 120.804C135.882 120.514 136.399 120.369 136.99 120.369C137.45 120.369 137.865 120.455 138.235 120.625C138.604 120.795 138.906 121.034 139.142 121.341C139.378 121.648 139.524 122.006 139.581 122.415H138.575C138.499 122.116 138.328 121.852 138.064 121.622C137.803 121.389 137.45 121.273 137.007 121.273C136.615 121.273 136.271 121.375 135.976 121.58C135.683 121.781 135.455 122.067 135.29 122.436C135.128 122.803 135.047 123.233 135.047 123.727C135.047 124.233 135.127 124.673 135.286 125.048C135.448 125.423 135.675 125.714 135.968 125.922C136.263 126.129 136.61 126.233 137.007 126.233C137.269 126.233 137.506 126.188 137.719 126.097C137.932 126.006 138.112 125.875 138.26 125.705C138.408 125.534 138.513 125.33 138.575 125.091H139.581C139.524 125.477 139.384 125.825 139.159 126.135C138.938 126.442 138.644 126.686 138.277 126.868C137.914 127.047 137.49 127.136 137.007 127.136ZM142.977 127.153C142.563 127.153 142.186 127.075 141.848 126.919C141.51 126.76 141.242 126.531 141.043 126.233C140.844 125.932 140.744 125.568 140.744 125.142C140.744 124.767 140.818 124.463 140.966 124.23C141.114 123.994 141.311 123.81 141.558 123.676C141.806 123.543 142.078 123.443 142.377 123.378C142.678 123.31 142.98 123.256 143.284 123.216C143.682 123.165 144.004 123.126 144.252 123.101C144.502 123.072 144.683 123.026 144.797 122.96C144.914 122.895 144.972 122.781 144.972 122.619V122.585C144.972 122.165 144.857 121.838 144.627 121.605C144.399 121.372 144.054 121.256 143.591 121.256C143.111 121.256 142.735 121.361 142.462 121.571C142.189 121.781 141.997 122.006 141.887 122.244L140.932 121.903C141.102 121.506 141.33 121.196 141.614 120.974C141.901 120.75 142.213 120.594 142.551 120.506C142.892 120.415 143.227 120.369 143.557 120.369C143.767 120.369 144.009 120.395 144.281 120.446C144.557 120.494 144.823 120.595 145.078 120.749C145.337 120.902 145.551 121.134 145.722 121.443C145.892 121.753 145.977 122.168 145.977 122.688V127H144.972V126.114H144.921C144.852 126.256 144.739 126.408 144.58 126.57C144.421 126.732 144.209 126.869 143.945 126.983C143.681 127.097 143.358 127.153 142.977 127.153ZM143.131 126.25C143.529 126.25 143.864 126.172 144.137 126.016C144.412 125.859 144.619 125.658 144.759 125.411C144.901 125.163 144.972 124.903 144.972 124.631V123.71C144.929 123.761 144.835 123.808 144.691 123.851C144.548 123.891 144.384 123.926 144.196 123.957C144.012 123.986 143.831 124.011 143.655 124.034C143.482 124.054 143.341 124.071 143.233 124.085C142.972 124.119 142.727 124.175 142.5 124.251C142.276 124.325 142.094 124.437 141.955 124.588C141.818 124.736 141.75 124.937 141.75 125.193C141.75 125.543 141.879 125.807 142.138 125.986C142.399 126.162 142.73 126.25 143.131 126.25ZM152.194 123.267V124.205H148.58V123.267H152.194ZM148.819 120.455V127H147.813V120.455H148.819ZM152.961 120.455V127H151.955V120.455H152.961ZM155.803 125.517L158.956 120.455H160.116V127H159.11V121.938L155.974 127H154.797V120.455H155.803V125.517ZM164.702 127.136C164.071 127.136 163.527 126.997 163.07 126.719C162.615 126.438 162.264 126.045 162.017 125.543C161.773 125.037 161.651 124.449 161.651 123.778C161.651 123.108 161.773 122.517 162.017 122.006C162.264 121.491 162.608 121.091 163.048 120.804C163.492 120.514 164.009 120.369 164.6 120.369C164.941 120.369 165.277 120.426 165.61 120.54C165.942 120.653 166.244 120.838 166.517 121.094C166.79 121.347 167.007 121.682 167.169 122.099C167.331 122.517 167.412 123.031 167.412 123.642V124.068H162.367V123.199H166.389C166.389 122.83 166.316 122.5 166.168 122.21C166.023 121.92 165.816 121.692 165.546 121.524C165.279 121.357 164.963 121.273 164.6 121.273C164.199 121.273 163.852 121.372 163.56 121.571C163.27 121.767 163.047 122.023 162.891 122.338C162.735 122.653 162.656 122.991 162.656 123.352V123.932C162.656 124.426 162.742 124.845 162.912 125.189C163.085 125.53 163.325 125.79 163.632 125.969C163.939 126.145 164.296 126.233 164.702 126.233C164.966 126.233 165.205 126.196 165.418 126.122C165.634 126.045 165.82 125.932 165.976 125.781C166.132 125.628 166.253 125.437 166.338 125.21L167.31 125.483C167.208 125.812 167.036 126.102 166.794 126.352C166.553 126.599 166.254 126.793 165.899 126.932C165.544 127.068 165.145 127.136 164.702 127.136ZM68.5692 140.875V138.062H69.1147C69.2482 137.923 69.3633 137.773 69.4599 137.611C69.5565 137.449 69.6403 137.257 69.7113 137.036C69.7852 136.811 69.8477 136.538 69.8988 136.217C69.9499 135.893 69.9954 135.503 70.0352 135.045L70.2567 132.455H74.4158V138.062H75.4215V140.875H74.4158V139H69.5749V140.875H68.5692ZM70.2567 138.062H73.4102V133.392H71.1942L71.0238 135.045C70.9528 135.73 70.8647 136.328 70.7596 136.839C70.6545 137.351 70.4869 137.759 70.2567 138.062ZM79.4155 139.136C78.8246 139.136 78.3061 138.996 77.8601 138.714C77.4169 138.433 77.0703 138.04 76.8203 137.534C76.5732 137.028 76.4496 136.437 76.4496 135.761C76.4496 135.08 76.5732 134.484 76.8203 133.976C77.0703 133.467 77.4169 133.072 77.8601 132.791C78.3061 132.51 78.8246 132.369 79.4155 132.369C80.0064 132.369 80.5234 132.51 80.9666 132.791C81.4126 133.072 81.7592 133.467 82.0064 133.976C82.2564 134.484 82.3814 135.08 82.3814 135.761C82.3814 136.437 82.2564 137.028 82.0064 137.534C81.7592 138.04 81.4126 138.433 80.9666 138.714C80.5234 138.996 80.0064 139.136 79.4155 139.136ZM79.4155 138.233C79.8643 138.233 80.2337 138.118 80.5234 137.888C80.8132 137.658 81.0277 137.355 81.1669 136.98C81.3061 136.605 81.3757 136.199 81.3757 135.761C81.3757 135.324 81.3061 134.916 81.1669 134.538C81.0277 134.161 80.8132 133.855 80.5234 133.622C80.2337 133.389 79.8643 133.273 79.4155 133.273C78.9666 133.273 78.5973 133.389 78.3075 133.622C78.0178 133.855 77.8033 134.161 77.6641 134.538C77.5249 134.916 77.4553 135.324 77.4553 135.761C77.4553 136.199 77.5249 136.605 77.6641 136.98C77.8033 137.355 78.0178 137.658 78.3075 137.888C78.5973 138.118 78.9666 138.233 79.4155 138.233ZM86.5756 139.136C85.962 139.136 85.4336 138.991 84.9904 138.702C84.5472 138.412 84.2063 138.013 83.9677 137.504C83.729 136.996 83.6097 136.415 83.6097 135.761C83.6097 135.097 83.7319 134.51 83.9762 134.001C84.2234 133.49 84.5671 133.091 85.0075 132.804C85.4506 132.514 85.9677 132.369 86.5586 132.369C87.0188 132.369 87.4336 132.455 87.8029 132.625C88.1722 132.795 88.4748 133.034 88.7106 133.341C88.9464 133.648 89.0927 134.006 89.1495 134.415H88.1438C88.0671 134.116 87.8967 133.852 87.6325 133.622C87.3711 133.389 87.0188 133.273 86.5756 133.273C86.1836 133.273 85.8398 133.375 85.5444 133.58C85.2518 133.781 85.0231 134.067 84.8583 134.436C84.6964 134.803 84.6154 135.233 84.6154 135.727C84.6154 136.233 84.695 136.673 84.854 137.048C85.016 137.423 85.2433 137.714 85.5359 137.922C85.8313 138.129 86.1779 138.233 86.5756 138.233C86.837 138.233 87.0742 138.188 87.2873 138.097C87.5004 138.006 87.6808 137.875 87.8285 137.705C87.9762 137.534 88.0813 137.33 88.1438 137.091H89.1495C89.0927 137.477 88.9521 137.825 88.7276 138.135C88.506 138.442 88.212 138.686 87.8455 138.868C87.4819 139.047 87.0586 139.136 86.5756 139.136ZM90.104 133.392V132.455H95.4222V133.392H93.2745V139H92.2688V133.392H90.104ZM97.8949 137.517L101.048 132.455H102.207V139H101.202V133.938L98.0653 139H96.8892V132.455H97.8949V137.517ZM103.64 139L106.299 135.676L103.674 132.455H104.868L107.049 135.25H107.595V132.455H108.6V135.25H109.129L111.311 132.455H112.504L109.896 135.676L112.538 139H111.328L109.112 136.188H108.6V139H107.595V136.188H107.083L104.85 139H103.64ZM116.45 139.136C115.819 139.136 115.275 138.997 114.818 138.719C114.363 138.438 114.012 138.045 113.765 137.543C113.521 137.037 113.399 136.449 113.399 135.778C113.399 135.108 113.521 134.517 113.765 134.006C114.012 133.491 114.356 133.091 114.797 132.804C115.24 132.514 115.757 132.369 116.348 132.369C116.689 132.369 117.025 132.426 117.358 132.54C117.69 132.653 117.993 132.838 118.265 133.094C118.538 133.347 118.755 133.682 118.917 134.099C119.079 134.517 119.16 135.031 119.16 135.642V136.068H114.115V135.199H118.137C118.137 134.83 118.064 134.5 117.916 134.21C117.771 133.92 117.564 133.692 117.294 133.524C117.027 133.357 116.711 133.273 116.348 133.273C115.947 133.273 115.6 133.372 115.308 133.571C115.018 133.767 114.795 134.023 114.639 134.338C114.483 134.653 114.404 134.991 114.404 135.352V135.932C114.404 136.426 114.49 136.845 114.66 137.189C114.833 137.53 115.074 137.79 115.38 137.969C115.687 138.145 116.044 138.233 116.45 138.233C116.714 138.233 116.953 138.196 117.166 138.122C117.382 138.045 117.568 137.932 117.724 137.781C117.88 137.628 118.001 137.437 118.086 137.21L119.058 137.483C118.956 137.812 118.784 138.102 118.542 138.352C118.301 138.599 118.002 138.793 117.647 138.932C117.292 139.068 116.893 139.136 116.45 139.136ZM125.071 135.267V136.205H121.457V135.267H125.071ZM121.696 132.455V139H120.69V132.455H121.696ZM125.838 132.455V139H124.832V132.455H125.838ZM128.68 137.517L131.833 132.455H132.993V139H131.987V133.938L128.85 139H127.674V132.455H128.68V137.517ZM138.772 139V133.375H137.033C136.641 133.375 136.333 133.466 136.109 133.648C135.884 133.83 135.772 134.08 135.772 134.398C135.772 134.71 135.873 134.956 136.075 135.135C136.279 135.314 136.559 135.403 136.914 135.403H139.028V136.341H136.914C136.471 136.341 136.089 136.263 135.768 136.107C135.447 135.95 135.2 135.727 135.026 135.438C134.853 135.145 134.766 134.798 134.766 134.398C134.766 133.994 134.857 133.648 135.039 133.358C135.221 133.068 135.481 132.845 135.819 132.689C136.16 132.533 136.565 132.455 137.033 132.455H139.727V139H138.772ZM134.408 139L136.266 135.744H137.357L135.499 139H134.408Z" fill="#121212"/>
<circle cx="20" cy="20" r="19.5" transform="matrix(-1 0 0 1 124 41)" fill="#F7F3F3" stroke="#121212"/>
<path d="M94.3922 69.5812H113.608C113.752 69.5812 113.89 69.5241 113.991 69.4224C114.093 69.3207 114.15 69.1828 114.15 69.039V66.6861C114.15 66.5423 114.093 66.4044 113.991 66.3027C113.89 66.2011 113.752 66.1439 113.608 66.1439C113.464 66.1439 113.326 66.2011 113.224 66.3027C113.123 66.4044 113.066 66.5423 113.066 66.6861V68.4969H94.9343V66.6861C94.9343 66.5423 94.8772 66.4044 94.7755 66.3027C94.6738 66.2011 94.5359 66.1439 94.3922 66.1439C94.2484 66.1439 94.1105 66.2011 94.0088 66.3027C93.9071 66.4044 93.85 66.5423 93.85 66.6861V69.039C93.85 69.1828 93.9071 69.3207 94.0088 69.4224C94.1105 69.5241 94.2484 69.5812 94.3922 69.5812Z" fill="#121212" stroke="#121212" stroke-width="0.3"/>
<path d="M103.707 65.5573L103.707 65.5573C103.794 65.6137 103.896 65.6438 104 65.6441L104.001 65.6441C104.104 65.6438 104.206 65.6137 104.293 65.5573L104.293 65.5573L108.47 62.8553L108.47 62.8555L108.476 62.8511C108.589 62.7699 108.666 62.6487 108.692 62.5123C108.718 62.3759 108.69 62.2348 108.615 62.118C108.54 62.0012 108.423 61.9177 108.288 61.8846C108.153 61.8516 108.011 61.8715 107.891 61.9403L107.89 61.9401L107.883 61.9446L104 64.4566L100.12 61.9465C100.061 61.9047 99.9942 61.8751 99.9237 61.8595C99.8518 61.8435 99.7774 61.8424 99.7051 61.8561C99.6328 61.8698 99.564 61.8981 99.503 61.9393C99.442 61.9805 99.39 62.0336 99.3502 62.0956C99.3104 62.1575 99.2836 62.2269 99.2715 62.2995C99.2593 62.3721 99.2621 62.4464 99.2797 62.5179C99.2972 62.5894 99.3291 62.6566 99.3735 62.7153C99.4169 62.7729 99.4714 62.8212 99.5337 62.8574L103.707 65.5573Z" fill="#121212" stroke="#121212" stroke-width="0.3"/>
<path d="M103.616 65.5012C103.718 65.6029 103.856 65.66 104 65.66C104.144 65.66 104.282 65.6029 104.383 65.5012C104.485 65.3996 104.542 65.2617 104.542 65.1179V52.961C104.542 52.8172 104.485 52.6793 104.383 52.5776C104.282 52.476 104.144 52.4188 104 52.4188C103.856 52.4188 103.718 52.476 103.616 52.5776C103.515 52.6793 103.458 52.8172 103.458 52.961V65.1179C103.458 65.2617 103.515 65.3996 103.616 65.5012Z" fill="#121212" stroke="#121212" stroke-width="0.3"/>
<rect y="194" width="210" height="68" rx="20" fill="#C979BE"/>
<path d="M58.4703 238.523V233.438H59.4078C59.7298 233.144 60.0328 232.73 60.3169 232.195C60.6058 231.655 60.8496 230.935 61.0485 230.036C61.2521 229.131 61.387 227.983 61.4533 226.591L61.7658 220.455H70.4022V233.438H72.0783V238.494H70.4022V235H60.1465V238.523H58.4703ZM61.5101 233.438H68.726V222.017H63.3567L63.1294 226.591C63.0726 227.652 62.9732 228.613 62.8311 229.474C62.6891 230.331 62.5068 231.091 62.2843 231.754C62.0617 232.412 61.8037 232.973 61.5101 233.438ZM78.9444 235.227C77.9596 235.227 77.0955 234.993 76.3521 234.524C75.6135 234.055 75.0358 233.4 74.6191 232.557C74.2072 231.714 74.0012 230.729 74.0012 229.602C74.0012 228.466 74.2072 227.474 74.6191 226.626C75.0358 225.779 75.6135 225.121 76.3521 224.652C77.0955 224.183 77.9596 223.949 78.9444 223.949C79.9293 223.949 80.791 224.183 81.5297 224.652C82.273 225.121 82.8507 225.779 83.2626 226.626C83.6793 227.474 83.8876 228.466 83.8876 229.602C83.8876 230.729 83.6793 231.714 83.2626 232.557C82.8507 233.4 82.273 234.055 81.5297 234.524C80.791 234.993 79.9293 235.227 78.9444 235.227ZM78.9444 233.722C79.6925 233.722 80.3081 233.53 80.791 233.146C81.274 232.763 81.6315 232.259 81.8635 231.634C82.0955 231.009 82.2115 230.331 82.2115 229.602C82.2115 228.873 82.0955 228.194 81.8635 227.564C81.6315 226.934 81.274 226.425 80.791 226.037C80.3081 225.649 79.6925 225.455 78.9444 225.455C78.1963 225.455 77.5808 225.649 77.0978 226.037C76.6149 226.425 76.2574 226.934 76.0254 227.564C75.7934 228.194 75.6774 228.873 75.6774 229.602C75.6774 230.331 75.7934 231.009 76.0254 231.634C76.2574 232.259 76.6149 232.763 77.0978 233.146C77.5808 233.53 78.1963 233.722 78.9444 233.722ZM94.5428 220L95.3951 221.023C95.0636 221.345 94.6801 221.57 94.2445 221.697C93.8089 221.825 93.3165 221.903 92.7672 221.932C92.218 221.96 91.6072 221.989 90.9348 222.017C90.1773 222.045 89.5499 222.23 89.0527 222.571C88.5556 222.912 88.1721 223.404 87.9022 224.048C87.6323 224.692 87.4595 225.483 87.3837 226.42H87.5257C87.8951 225.739 88.4064 225.237 89.0598 224.915C89.7132 224.593 90.414 224.432 91.1621 224.432C92.0144 224.432 92.7814 224.631 93.4632 225.028C94.1451 225.426 94.6848 226.016 95.0826 226.797C95.4803 227.578 95.6792 228.542 95.6792 229.688C95.6792 230.829 95.4756 231.813 95.0684 232.642C94.6659 233.471 94.1001 234.11 93.3709 234.56C92.6465 235.005 91.7966 235.227 90.8212 235.227C89.8458 235.227 88.9912 234.998 88.2573 234.538C87.5234 234.074 86.9528 233.388 86.5456 232.479C86.1384 231.565 85.9348 230.436 85.9348 229.091V227.926C85.9348 225.497 86.3468 223.655 87.1706 222.401C87.9992 221.146 89.2445 220.497 90.9064 220.455C91.4935 220.436 92.0167 220.431 92.476 220.44C92.9353 220.45 93.3354 220.429 93.6763 220.376C94.0172 220.324 94.306 220.199 94.5428 220ZM90.8212 233.722C91.4793 233.722 92.0452 233.556 92.5186 233.224C92.9969 232.893 93.3638 232.427 93.6195 231.825C93.8752 231.219 94.003 230.507 94.003 229.688C94.003 228.892 93.8728 228.215 93.6124 227.656C93.3567 227.098 92.9898 226.671 92.5115 226.378C92.0333 226.084 91.4604 225.938 90.7928 225.938C90.3051 225.938 89.8671 226.02 89.4789 226.186C89.0906 226.352 88.7592 226.596 88.4846 226.918C88.2099 227.24 87.9969 227.633 87.8453 228.097C87.6986 228.561 87.6204 229.091 87.611 229.688C87.611 230.909 87.8974 231.887 88.4703 232.621C89.0433 233.355 89.8269 233.722 90.8212 233.722ZM101.453 235.256C100.762 235.256 100.135 235.125 99.5712 234.865C99.0078 234.6 98.5603 234.219 98.2289 233.722C97.8974 233.22 97.7317 232.614 97.7317 231.903C97.7317 231.278 97.8548 230.772 98.101 230.384C98.3472 229.991 98.6763 229.683 99.0882 229.46C99.5002 229.238 99.9547 229.072 100.452 228.963C100.954 228.849 101.458 228.759 101.965 228.693C102.628 228.608 103.165 228.544 103.577 228.501C103.994 228.454 104.297 228.376 104.486 228.267C104.68 228.158 104.777 227.969 104.777 227.699V227.642C104.777 226.941 104.585 226.397 104.202 226.009C103.823 225.62 103.248 225.426 102.476 225.426C101.676 225.426 101.048 225.601 100.594 225.952C100.139 226.302 99.8198 226.676 99.6351 227.074L98.0442 226.506C98.3283 225.843 98.7071 225.327 99.1806 224.957C99.6588 224.583 100.18 224.323 100.743 224.176C101.311 224.025 101.87 223.949 102.419 223.949C102.77 223.949 103.172 223.991 103.627 224.077C104.086 224.157 104.529 224.325 104.955 224.581C105.386 224.837 105.743 225.223 106.027 225.739C106.311 226.255 106.453 226.946 106.453 227.812V235H104.777V233.523H104.692C104.578 233.759 104.389 234.013 104.124 234.283C103.859 234.553 103.506 234.782 103.066 234.972C102.625 235.161 102.088 235.256 101.453 235.256ZM101.709 233.75C102.372 233.75 102.931 233.62 103.385 233.359C103.844 233.099 104.19 232.763 104.422 232.351C104.659 231.939 104.777 231.506 104.777 231.051V229.517C104.706 229.602 104.55 229.68 104.308 229.751C104.072 229.818 103.797 229.877 103.485 229.929C103.177 229.976 102.876 230.019 102.583 230.057C102.294 230.09 102.059 230.118 101.879 230.142C101.444 230.199 101.037 230.291 100.658 230.419C100.284 230.542 99.9808 230.729 99.7488 230.98C99.5215 231.226 99.4078 231.562 99.4078 231.989C99.4078 232.571 99.6233 233.011 100.054 233.31C100.49 233.603 101.041 233.75 101.709 233.75ZM109.513 235V224.091H113.973C115.147 224.091 116.08 224.356 116.771 224.886C117.462 225.417 117.808 226.117 117.808 226.989C117.808 227.652 117.612 228.165 117.219 228.53C116.826 228.89 116.321 229.134 115.706 229.261C116.108 229.318 116.499 229.46 116.878 229.688C117.261 229.915 117.578 230.227 117.829 230.625C118.08 231.018 118.206 231.501 118.206 232.074C118.206 232.633 118.064 233.132 117.78 233.572C117.496 234.013 117.088 234.361 116.558 234.616C116.028 234.872 115.393 235 114.655 235H109.513ZM111.104 233.466H114.655C115.232 233.466 115.684 233.329 116.011 233.054C116.338 232.779 116.501 232.405 116.501 231.932C116.501 231.368 116.338 230.926 116.011 230.604C115.684 230.277 115.232 230.114 114.655 230.114H111.104V233.466ZM111.104 228.665H113.973C114.423 228.665 114.809 228.603 115.131 228.48C115.452 228.352 115.699 228.172 115.869 227.94C116.044 227.704 116.132 227.424 116.132 227.102C116.132 226.643 115.94 226.283 115.557 226.023C115.173 225.758 114.645 225.625 113.973 225.625H111.104V228.665ZM122.419 232.528L127.675 224.091H129.607V235H127.931V226.562L122.703 235H120.743V224.091H122.419V232.528ZM131.192 225.653V224.091H140.056V225.653H136.476V235H134.8V225.653H131.192ZM143.95 228.04H147.075C148.353 228.04 149.331 228.364 150.008 229.013C150.685 229.661 151.024 230.483 151.024 231.477C151.024 232.131 150.872 232.725 150.569 233.26C150.266 233.79 149.821 234.214 149.234 234.531C148.647 234.844 147.927 235 147.075 235H142.501V224.091H144.177V233.438H147.075C147.738 233.438 148.282 233.262 148.708 232.912C149.134 232.562 149.347 232.112 149.347 231.562C149.347 230.985 149.134 230.514 148.708 230.149C148.282 229.785 147.738 229.602 147.075 229.602H143.95V228.04Z" fill="#F7F3F3"/>
</svg>
