<svg width="840" height="103" viewBox="0 0 840 103" fill="none" xmlns="http://www.w3.org/2000/svg">
<path d="M507.306 10C506.922 10 506.611 10.3267 506.611 10.7292V30.2708C506.611 30.4642 506.684 30.6497 506.815 30.7864C506.945 30.9232 507.121 31 507.306 31C507.49 31 507.666 30.9232 507.797 30.7864C507.927 30.6497 508 30.4642 508 30.2708V10.7292C508 10.3267 507.689 10 507.306 10ZM488 11.8993C488 10.3739 489.628 9.47267 490.827 10.336L502.773 18.9361C503.819 19.6886 503.819 21.3103 502.773 22.0628L490.827 30.664C489.628 31.525 488 30.6249 488 29.1001V11.8993Z" fill="white"/>
<path opacity="0.6" d="M332.694 10C333.078 10 333.389 10.3267 333.389 10.7292V30.2708C333.389 30.4642 333.316 30.6497 333.185 30.7864C333.055 30.9232 332.879 31 332.694 31C332.51 31 332.334 30.9232 332.203 30.7864C332.073 30.6497 332 30.4642 332 30.2708V10.7292C332 10.3267 332.311 10 332.694 10ZM352 11.8993C352 10.3739 350.372 9.47267 349.173 10.336L337.227 18.9355C336.181 19.688 336.181 21.3097 337.227 22.0622L349.173 30.6628C350.372 31.525 352 30.6249 352 29.1001V11.8993Z" fill="white"/>
<path fill-rule="evenodd" clip-rule="evenodd" d="M404.942 3.11552C405.005 2.5698 405.194 2.04666 405.494 1.58777C405.793 1.12888 406.194 0.746913 406.665 0.4723C407.136 0.197686 407.664 0.0380124 408.207 0.00599581C408.75 -0.0260207 409.293 0.0705048 409.793 0.287884C412.318 1.37858 417.978 3.97078 425.16 8.15818C432.344 12.348 437.398 16.0068 439.592 17.6669C441.466 19.0867 441.471 21.9024 439.595 23.327C437.421 24.9774 432.43 28.5883 425.16 32.8309C417.883 37.0736 412.29 39.6345 409.788 40.7108C407.634 41.6406 405.222 40.2303 404.942 37.8832C404.614 35.1396 404 28.9102 404 20.497C404 12.0885 404.611 5.86147 404.942 3.11552Z" fill="white"/>
<path d="M0.868 74.834C0.868 73.2287 1.12933 71.978 1.652 71.082C2.17467 70.1767 3.08933 69.724 4.396 69.724C5.69333 69.724 6.60333 70.1767 7.126 71.082C7.64867 71.978 7.91 73.2287 7.91 74.834C7.91 76.4673 7.64867 77.7367 7.126 78.642C6.60333 79.5473 5.69333 80 4.396 80C3.08933 80 2.17467 79.5473 1.652 78.642C1.12933 77.7367 0.868 76.4673 0.868 74.834ZM6.65 74.834C6.65 74.022 6.594 73.336 6.482 72.776C6.37933 72.2067 6.16 71.7493 5.824 71.404C5.49733 71.0587 5.02133 70.886 4.396 70.886C3.76133 70.886 3.276 71.0587 2.94 71.404C2.61333 71.7493 2.394 72.2067 2.282 72.776C2.17933 73.336 2.128 74.022 2.128 74.834C2.128 75.674 2.17933 76.3787 2.282 76.948C2.394 77.5173 2.61333 77.9747 2.94 78.32C3.276 78.6653 3.76133 78.838 4.396 78.838C5.02133 78.838 5.49733 78.6653 5.824 78.32C6.16 77.9747 6.37933 77.5173 6.482 76.948C6.594 76.3787 6.65 75.674 6.65 74.834ZM10.275 80.084C10.0323 80.084 9.82702 80 9.65902 79.832C9.49102 79.664 9.40702 79.4587 9.40702 79.216C9.40702 78.9733 9.49102 78.768 9.65902 78.6C9.82702 78.432 10.0323 78.348 10.275 78.348C10.5083 78.348 10.7043 78.432 10.863 78.6C11.031 78.768 11.115 78.9733 11.115 79.216C11.115 79.4587 11.031 79.664 10.863 79.832C10.7043 80 10.5083 80.084 10.275 80.084ZM10.275 74.092C10.0323 74.092 9.82702 74.008 9.65902 73.84C9.49102 73.672 9.40702 73.4667 9.40702 73.224C9.40702 72.9813 9.49102 72.776 9.65902 72.608C9.82702 72.44 10.0323 72.356 10.275 72.356C10.5083 72.356 10.7043 72.44 10.863 72.608C11.031 72.776 11.115 72.9813 11.115 73.224C11.115 73.4667 11.031 73.672 10.863 73.84C10.7043 74.008 10.5083 74.092 10.275 74.092ZM12.6395 74.834C12.6395 73.2287 12.9008 71.978 13.4235 71.082C13.9462 70.1767 14.8608 69.724 16.1675 69.724C17.4648 69.724 18.3748 70.1767 18.8975 71.082C19.4202 71.978 19.6815 73.2287 19.6815 74.834C19.6815 76.4673 19.4202 77.7367 18.8975 78.642C18.3748 79.5473 17.4648 80 16.1675 80C14.8608 80 13.9462 79.5473 13.4235 78.642C12.9008 77.7367 12.6395 76.4673 12.6395 74.834ZM18.4215 74.834C18.4215 74.022 18.3655 73.336 18.2535 72.776C18.1508 72.2067 17.9315 71.7493 17.5955 71.404C17.2688 71.0587 16.7928 70.886 16.1675 70.886C15.5328 70.886 15.0475 71.0587 14.7115 71.404C14.3848 71.7493 14.1655 72.2067 14.0535 72.776C13.9508 73.336 13.8995 74.022 13.8995 74.834C13.8995 75.674 13.9508 76.3787 14.0535 76.948C14.1655 77.5173 14.3848 77.9747 14.7115 78.32C15.0475 78.6653 15.5328 78.838 16.1675 78.838C16.7928 78.838 17.2688 78.6653 17.5955 78.32C17.9315 77.9747 18.1508 77.5173 18.2535 76.948C18.3655 76.3787 18.4215 75.674 18.4215 74.834ZM21.4305 74.834C21.4305 73.2287 21.6918 71.978 22.2145 71.082C22.7372 70.1767 23.6518 69.724 24.9585 69.724C26.2558 69.724 27.1658 70.1767 27.6885 71.082C28.2112 71.978 28.4725 73.2287 28.4725 74.834C28.4725 76.4673 28.2112 77.7367 27.6885 78.642C27.1658 79.5473 26.2558 80 24.9585 80C23.6518 80 22.7372 79.5473 22.2145 78.642C21.6918 77.7367 21.4305 76.4673 21.4305 74.834ZM27.2125 74.834C27.2125 74.022 27.1565 73.336 27.0445 72.776C26.9418 72.2067 26.7225 71.7493 26.3865 71.404C26.0598 71.0587 25.5838 70.886 24.9585 70.886C24.3238 70.886 23.8385 71.0587 23.5025 71.404C23.1758 71.7493 22.9565 72.2067 22.8445 72.776C22.7418 73.336 22.6905 74.022 22.6905 74.834C22.6905 75.674 22.7418 76.3787 22.8445 76.948C22.9565 77.5173 23.1758 77.9747 23.5025 78.32C23.8385 78.6653 24.3238 78.838 24.9585 78.838C25.5838 78.838 26.0598 78.6653 26.3865 78.32C26.7225 77.9747 26.9418 77.5173 27.0445 76.948C27.1565 76.3787 27.2125 75.674 27.2125 74.834Z" fill="white"/>
<path d="M812.085 78.978C813.27 78.026 814.199 77.2467 814.871 76.64C815.543 76.024 816.108 75.3847 816.565 74.722C817.032 74.05 817.265 73.392 817.265 72.748C817.265 72.1413 817.116 71.6653 816.817 71.32C816.528 70.9653 816.056 70.788 815.403 70.788C814.768 70.788 814.274 70.9887 813.919 71.39C813.574 71.782 813.387 72.3093 813.359 72.972H812.127C812.164 71.9267 812.482 71.1193 813.079 70.55C813.676 69.9807 814.446 69.696 815.389 69.696C816.35 69.696 817.111 69.962 817.671 70.494C818.24 71.026 818.525 71.7587 818.525 72.692C818.525 73.4667 818.292 74.2227 817.825 74.96C817.368 75.688 816.845 76.332 816.257 76.892C815.669 77.4427 814.918 78.0867 814.003 78.824H818.819V79.888H812.085V78.978ZM820.908 80.084C820.665 80.084 820.46 80 820.292 79.832C820.124 79.664 820.04 79.4587 820.04 79.216C820.04 78.9733 820.124 78.768 820.292 78.6C820.46 78.432 820.665 78.348 820.908 78.348C821.141 78.348 821.337 78.432 821.496 78.6C821.664 78.768 821.748 78.9733 821.748 79.216C821.748 79.4587 821.664 79.664 821.496 79.832C821.337 80 821.141 80.084 820.908 80.084ZM820.908 74.092C820.665 74.092 820.46 74.008 820.292 73.84C820.124 73.672 820.04 73.4667 820.04 73.224C820.04 72.9813 820.124 72.776 820.292 72.608C820.46 72.44 820.665 72.356 820.908 72.356C821.141 72.356 821.337 72.44 821.496 72.608C821.664 72.776 821.748 72.9813 821.748 73.224C821.748 73.4667 821.664 73.672 821.496 73.84C821.337 74.008 821.141 74.092 820.908 74.092ZM822.964 77.746V76.78L827.878 69.976H829.404V76.64H830.804V77.746H829.404V80H828.144V77.746H822.964ZM828.2 71.306L824.434 76.64H828.2V71.306ZM832.077 74.834C832.077 73.2287 832.338 71.978 832.861 71.082C833.384 70.1767 834.298 69.724 835.605 69.724C836.902 69.724 837.812 70.1767 838.335 71.082C838.858 71.978 839.119 73.2287 839.119 74.834C839.119 76.4673 838.858 77.7367 838.335 78.642C837.812 79.5473 836.902 80 835.605 80C834.298 80 833.384 79.5473 832.861 78.642C832.338 77.7367 832.077 76.4673 832.077 74.834ZM837.859 74.834C837.859 74.022 837.803 73.336 837.691 72.776C837.588 72.2067 837.369 71.7493 837.033 71.404C836.706 71.0587 836.23 70.886 835.605 70.886C834.97 70.886 834.485 71.0587 834.149 71.404C833.822 71.7493 833.603 72.2067 833.491 72.776C833.388 73.336 833.337 74.022 833.337 74.834C833.337 75.674 833.388 76.3787 833.491 76.948C833.603 77.5173 833.822 77.9747 834.149 78.32C834.485 78.6653 834.97 78.838 835.605 78.838C836.23 78.838 836.706 78.6653 837.033 78.32C837.369 77.9747 837.588 77.5173 837.691 76.948C837.803 76.3787 837.859 75.674 837.859 74.834Z" fill="white"/>
<rect y="91" width="840" height="12" rx="6" fill="#D9D9D9" fill-opacity="0.2"/>
</svg>
