<svg width="40" height="40" viewBox="0 0 40 40" fill="none" xmlns="http://www.w3.org/2000/svg">
<g clip-path="url(#clip0_41_2)">
<path d="M20 39.5C9.23045 39.5 0.5 30.7696 0.5 20C0.5 9.23045 9.23045 0.5 20 0.5C30.7696 0.5 39.5 9.23045 39.5 20C39.5 30.7696 30.7696 39.5 20 39.5Z" fill="#F7F3F3" stroke="#A5A4A4"/>
<path d="M20 17.72V22.28" stroke="#A5A4A4" stroke-linecap="round" stroke-linejoin="round"/>
<path d="M22.28 20H17.72" stroke="#A5A4A4" stroke-linecap="round" stroke-linejoin="round"/>
<path d="M11.8685 28.1821C10.3653 26.6751 9.30811 24.7799 8.81442 22.707C8.32073 20.6341 8.40982 18.4646 9.07178 16.4394C9.73374 14.4142 10.9427 12.6125 12.5644 11.2344C14.1861 9.85635 16.157 8.95576 18.2584 8.63266M18.3815 8.61442C21.2578 8.20524 24.182 8.90223 26.5668 10.5654C28.9515 12.2286 30.6201 14.7347 31.2373 17.5804C31.8546 20.426 31.3748 23.4004 29.8943 25.9061C28.4138 28.4117 26.0424 30.263 23.2562 31.088C22.1562 31.4087 21.9738 30.9163 21.9101 30.5516C21.8036 29.9429 22.2745 29.8716 22.879 29.5685C23.628 29.2364 24.3193 28.7865 24.9266 28.2357C25.8189 27.3499 26.5798 26.3405 27.1861 25.2382C27.6657 24.4131 28.028 23.5249 28.2626 22.5994C28.5304 21.6543 28.6573 20.6747 28.6393 19.6924C28.5699 17.9043 27.9499 16.1816 26.8646 14.7609C25.7792 13.3402 24.2817 12.2912 22.5777 11.7579C20.8736 11.2247 19.0467 11.2333 17.3478 11.7827C15.6489 12.3321 14.1613 13.3953 13.0894 14.8263M13.8893 26.1564C12.4288 24.6923 11.5395 22.7525 11.3825 20.688C11.2255 18.6235 11.8111 16.571 13.0333 14.9019M13.8417 26.1086C14.0687 26.3353 14.2198 26.6271 14.274 26.9437C14.3086 27.1299 14.3047 27.3212 14.2627 27.5058C14.2206 27.6904 14.1413 27.8644 14.0295 28.0171C13.9177 28.1698 13.776 28.2979 13.6129 28.3935C13.4498 28.4892 13.2689 28.5503 13.0814 28.5731C12.8521 28.5996 12.6197 28.5734 12.402 28.4966C12.1842 28.4197 11.9868 28.2942 11.8246 28.1295M20.6993 30.7383C20.6993 31.4827 19.2804 31.5696 18.7223 31.4623C17.9636 31.3164 16.9497 31.1051 17.0423 30.4583C17.1397 29.7777 18.4976 29.8002 19.0209 29.8522C19.5062 29.9005 20.6993 30.07 20.6993 30.7383Z" stroke="#A5A4A4" stroke-linecap="round" stroke-linejoin="round"/>
</g>
<defs>
<clipPath id="clip0_41_2">
<rect width="40" height="40" fill="white"/>
</clipPath>
</defs>
</svg>
