<svg width="70" height="70" viewBox="0 0 70 70" fill="none" xmlns="http://www.w3.org/2000/svg">
<path d="M43.1447 44.8758C47.6832 44.8758 51.3624 41.1967 51.3624 36.6581C51.3624 32.1196 47.6832 28.4404 43.1447 28.4404C38.6062 28.4404 34.927 32.1196 34.927 36.6581C34.927 41.1967 38.6062 44.8758 43.1447 44.8758Z" stroke="#C979BE" stroke-width="5" stroke-linecap="round" stroke-linejoin="round"/>
<path d="M51.3624 36.6582C51.3624 24.2609 43.7222 20.3686 36.9468 20.3686C30.1714 20.3686 20.3685 23.8277 20.3685 36.6582C20.3685 49.4886 26.8551 58.2809 43.1462 58.2809C58.571 58.2809 66.3555 46.1723 66.3555 36.6582C66.3541 27.5757 65.008 3.64587 35.2624 3.64587C9.55638 3.64587 3.64575 26.1334 3.64575 36.6582C4.15635 46.5786 8.01924 56.032 14.6022 63.4711" stroke="#C979BE" stroke-width="5" stroke-linecap="round" stroke-linejoin="round"/>
</svg>
