<svg width="40" height="41" viewBox="0 0 40 41" fill="none" xmlns="http://www.w3.org/2000/svg">
<g id="Group 53">
<circle id="Ellipse 1" cx="20" cy="20" r="19.5" transform="matrix(-1 0 0 1 40 0.5)" fill="#F7F3F3" stroke="#A5A4A4"/>
<g id="Group 52">
<path id="Vector" d="M27.22 11V15.56" stroke="#A5A4A4" stroke-linecap="round" stroke-linejoin="round"/>
<path id="Vector_2" d="M29.4999 13.28H24.9399" stroke="#A5A4A4" stroke-linecap="round" stroke-linejoin="round"/>
<path id="Vector_3" d="M25.3199 26.96C26.789 26.96 27.9799 25.7691 27.9799 24.3C27.9799 22.8309 26.789 21.64 25.3199 21.64C23.8508 21.64 22.6599 22.8309 22.6599 24.3C22.6599 25.7691 23.8508 26.96 25.3199 26.96Z" stroke="#A5A4A4" stroke-linecap="round" stroke-linejoin="round"/>
<path id="Vector_4" d="M13.16 30C14.6291 30 15.82 28.8091 15.82 27.34C15.82 25.8709 14.6291 24.68 13.16 24.68C11.6909 24.68 10.5 25.8709 10.5 27.34C10.5 28.8091 11.6909 30 13.16 30Z" stroke="#A5A4A4" stroke-linecap="round" stroke-linejoin="round"/>
<path id="Vector_5" d="M27.98 19.2839V24.2999" stroke="#A5A4A4" stroke-linecap="round" stroke-linejoin="round"/>
<path id="Vector_6" d="M15.8201 27.3401V14.0401L21.1876 12.7006" stroke="#A5A4A4" stroke-linecap="round" stroke-linejoin="round"/>
<path id="Vector_7" d="M23.3346 16.7189L15.8201 18.5999" stroke="#A5A4A4" stroke-linecap="round" stroke-linejoin="round"/>
</g>
</g>
</svg>
