<svg width="40" height="41" viewBox="0 0 40 41" fill="none" xmlns="http://www.w3.org/2000/svg">
<g id="Group 51">
<circle id="Ellipse 1" cx="20" cy="20" r="19.5" transform="matrix(-1 0 0 1 40 0.5)" fill="#F7F3F3" stroke="#A5A4A4"/>
<g id="Group 50">
<g id="Group 49">
<g id="Group 48">
<g id="Group 47">
<line id="Line 1" x1="12.7495" y1="28.3075" x2="12.7495" y2="18.3075" stroke="#A5A4A4"/>
<line id="Line 2" x1="26.7502" y1="28.3075" x2="26.7502" y2="18.3075" stroke="#A5A4A4"/>
<path id="Ellipse 7" d="M26.7495 18.3075C26.7495 17.3882 26.5685 16.478 26.2167 15.6287C25.8649 14.7794 25.3493 14.0077 24.6993 13.3577C24.0492 12.7077 23.2776 12.1921 22.4283 11.8403C21.579 11.4885 20.6688 11.3075 19.7495 11.3075C18.8303 11.3075 17.92 11.4885 17.0707 11.8403C16.2214 12.1921 15.4498 12.7077 14.7998 13.3577C14.1498 14.0077 13.6341 14.7794 13.2824 15.6287C12.9306 16.478 12.7495 17.3882 12.7495 18.3075" stroke="#A5A4A4"/>
</g>
<path id="Line 3" d="M11 27.8576H29" stroke="#A5A4A4" stroke-linecap="round"/>
</g>
<path id="Line 4" d="M17.4614 31.1952H22.5386" stroke="#A5A4A4" stroke-linecap="round"/>
</g>
<path id="Line 5" d="M20 11.19L20 9.80487" stroke="#A5A4A4" stroke-linecap="round"/>
</g>
</g>
</svg>
