<svg width="51" height="51" viewBox="0 0 51 51" fill="none" xmlns="http://www.w3.org/2000/svg">
<rect width="51" height="51" rx="25.5" fill="#C979BE"/>
<path d="M25.5 23C27.6746 23 29.4375 21.2091 29.4375 19C29.4375 16.7909 27.6746 15 25.5 15C23.3254 15 21.5625 16.7909 21.5625 19C21.5625 21.2091 23.3254 23 25.5 23Z" stroke="white"/>
<path d="M15 33.3333C15 31.9188 15.5531 30.5623 16.5377 29.5621C17.5223 28.5619 18.8576 28 20.25 28H30.75C32.1424 28 33.4777 28.5619 34.4623 29.5621C35.4469 30.5623 36 31.9188 36 33.3333C36 34.0406 35.7234 34.7189 35.2312 35.219C34.7389 35.719 34.0712 36 33.375 36H17.625C16.9288 36 16.2611 35.719 15.7688 35.219C15.2766 34.7189 15 34.0406 15 33.3333Z" stroke="white" stroke-linejoin="round"/>
</svg>
