<svg width="37" height="41" viewBox="0 0 37 41" fill="none" xmlns="http://www.w3.org/2000/svg">
<path fill-rule="evenodd" clip-rule="evenodd" d="M0.941714 3.11552C1.00546 2.5698 1.19448 2.04666 1.49369 1.58777C1.79291 1.12888 2.19407 0.746913 2.66521 0.4723C3.13635 0.197686 3.66446 0.0380124 4.20747 0.00599581C4.75049 -0.0260207 5.2934 0.0705048 5.79296 0.287884C8.31847 1.37858 13.9783 3.97078 21.16 8.15818C28.3441 12.348 33.3975 16.0068 35.5925 17.6669C37.4664 19.0867 37.4712 21.9024 35.5949 23.327C33.4213 24.9774 28.4298 28.5883 21.16 32.8309C13.8831 37.0736 8.28993 39.6345 5.78821 40.7108C3.63368 41.6406 1.22233 40.2303 0.941714 37.8832C0.613541 35.1396 0 28.9102 0 20.497C0 12.0885 0.611163 5.86147 0.941714 3.11552Z" fill="white"/>
</svg>
