<svg width="20" height="21" viewBox="0 0 20 21" fill="none" xmlns="http://www.w3.org/2000/svg">
<path d="M19.3056 0C18.9222 0 18.6111 0.326667 18.6111 0.729167V20.2708C18.6111 20.4642 18.6843 20.6497 18.8145 20.7864C18.9447 20.9232 19.1214 21 19.3056 21C19.4897 21 19.6664 20.9232 19.7966 20.7864C19.9268 20.6497 20 20.4642 20 20.2708V0.729167C20 0.326667 19.6889 0 19.3056 0ZM0 1.89933C0 0.373916 1.62833 -0.527333 2.82667 0.336L14.7733 8.93608C15.8194 9.68858 15.8194 11.3103 14.7733 12.0627L2.82667 20.664C1.62778 21.525 0 20.6249 0 19.1001V1.89933Z" fill="white"/>
</svg>
