<svg width="20" height="21" viewBox="0 0 20 21" fill="none" xmlns="http://www.w3.org/2000/svg">
<path opacity="0.6" d="M0.694444 0C1.07778 0 1.38889 0.326667 1.38889 0.729167V20.2708C1.38889 20.4642 1.31572 20.6497 1.18549 20.7864C1.05526 20.9232 0.878623 21 0.694444 21C0.510266 21 0.333632 20.9232 0.203398 20.7864C0.0731645 20.6497 0 20.4642 0 20.2708V0.729167C0 0.326667 0.311111 0 0.694444 0ZM20 1.89933C20 0.373916 18.3722 -0.527333 17.1733 0.336L5.22667 8.9355C4.18056 9.688 4.18056 11.3097 5.22667 12.0622L17.1733 20.6628C18.3722 21.525 20 20.6249 20 19.1001V1.89933Z" fill="white"/>
</svg>
