<svg width="599" height="321" viewBox="0 0 599 321" fill="none" xmlns="http://www.w3.org/2000/svg">
<path d="M576.251 139.118H599V181.882H576.251V139.118ZM531.422 194.403H554.171V126.597H531.422V194.403ZM487.346 229.475H510.095V91.5246H487.346V229.475ZM445.446 256.539H468.195V65.7236H445.446V256.493V256.539ZM400.589 209.94H423.338V111.06H400.589V209.94ZM355.021 284.761H377.77V32.0079H354.949V284.761H355.021ZM310.178 321H332.927V0H310.178V321ZM266.102 271.443H288.851V49.5558H266.102V271.444V271.443ZM220.505 208.432H243.254V114.905H220.505V208.432ZM176.43 186.136H199.179V134.781H176.43V186.221V186.136ZM132.354 213.611H155.103V107.353H132.354V213.645V213.611ZM88.9893 265.048H111.738V49.8717H88.9906V265.085L88.9893 265.048ZM44.9146 232.175H67.6636V86.9773H44.9146V232.211V232.175ZM0 194.403H22.749V126.597H0V194.403Z" fill="url(#paint0_linear_10_570)" fill-opacity="0.8"/>
<defs>
<linearGradient id="paint0_linear_10_570" x1="299.5" y1="0" x2="299.5" y2="321" gradientUnits="userSpaceOnUse">
<stop stop-color="white"/>
<stop offset="1" stop-color="white" stop-opacity="0"/>
</linearGradient>
</defs>
</svg>
